<?xml version="1.0" encoding="utf-8"?>
<!-- Generator: Adobe Illustrator 25.1.0, SVG Export Plug-In . SVG Version: 6.00 Build 0)  -->
<svg version="1.1" id="레이어_1" xmlns="http://www.w3.org/2000/svg" xmlns:xlink="http://www.w3.org/1999/xlink" x="0px"
	 y="0px" viewBox="0 0 60.68 58.5" style="enable-background:new 0 0 60.68 58.5;" xml:space="preserve">
<style type="text/css">
	.st0{fill:#D2D9E1;}
</style>
<g>
	<path class="st0" d="M17.71,58.5c-3.3,0-6.29-0.79-8.95-2.38c-2.67-1.58-4.79-3.71-6.38-6.38S0,44.1,0,40.79V17.71
		c0-3.3,0.79-6.29,2.38-8.95c1.59-2.66,3.71-4.79,6.38-6.38C11.42,0.79,14.4,0,17.71,0S24,0.79,26.68,2.38
		c2.68,1.59,4.8,3.71,6.38,6.38c1.57,2.67,2.36,5.65,2.36,8.95v23.09c0,3.3-0.79,6.29-2.36,8.95c-1.57,2.67-3.7,4.79-6.38,6.38
		C24,57.71,21.01,58.5,17.71,58.5z M17.71,54.09c2.42,0,4.62-0.59,6.61-1.78c1.99-1.18,3.58-2.77,4.78-4.78
		c1.2-2,1.79-4.21,1.79-6.63V17.55c0-2.39-0.6-4.59-1.79-6.59c-1.2-2-2.79-3.59-4.78-4.78C22.33,5,20.12,4.41,17.71,4.41
		S13.08,5,11.1,6.18c-1.99,1.18-3.58,2.78-4.78,4.78c-1.2,2-1.79,4.2-1.79,6.59v23.36c0,2.42,0.6,4.63,1.79,6.63
		c1.2,2,2.79,3.59,4.78,4.78C13.08,53.5,15.29,54.09,17.71,54.09z"/>
	<path class="st0" d="M56.16,57.33V6.28l-10.61,6.36V7.49l10.61-6.32h4.52v56.16H56.16z"/>
</g>
</svg>
