<?xml version="1.0" encoding="utf-8"?>
<!-- Generator: Adobe Illustrator 25.1.0, SVG Export Plug-In . SVG Version: 6.00 Build 0)  -->
<svg version="1.1" id="레이어_1" xmlns="http://www.w3.org/2000/svg" xmlns:xlink="http://www.w3.org/1999/xlink" x="0px"
	 y="0px" viewBox="0 0 80.77 58.5" style="enable-background:new 0 0 80.77 58.5;" xml:space="preserve">
<style type="text/css">
	.st0{fill:#D2D9E1;}
</style>
<g>
	<path class="st0" d="M17.71,58.5c-3.3,0-6.29-0.79-8.95-2.38c-2.67-1.58-4.79-3.71-6.38-6.38S0,44.1,0,40.79V17.71
		c0-3.3,0.79-6.29,2.38-8.95c1.59-2.66,3.71-4.79,6.38-6.38C11.42,0.79,14.4,0,17.71,0S24,0.79,26.68,2.38
		c2.68,1.59,4.8,3.71,6.38,6.38c1.57,2.67,2.36,5.65,2.36,8.95v23.09c0,3.3-0.79,6.29-2.36,8.95c-1.57,2.67-3.7,4.79-6.38,6.38
		C24,57.71,21.01,58.5,17.71,58.5z M17.71,54.09c2.42,0,4.62-0.59,6.61-1.78c1.99-1.18,3.58-2.77,4.78-4.78
		c1.2-2,1.79-4.21,1.79-6.63V17.55c0-2.39-0.6-4.59-1.79-6.59c-1.2-2-2.79-3.59-4.78-4.78C22.33,5,20.12,4.41,17.71,4.41
		S13.08,5,11.1,6.18c-1.99,1.18-3.58,2.78-4.78,4.78c-1.2,2-1.79,4.2-1.79,6.59v23.36c0,2.42,0.6,4.63,1.79,6.63
		c1.2,2,2.79,3.59,4.78,4.78C13.08,53.5,15.29,54.09,17.71,54.09z"/>
	<path class="st0" d="M44.77,57.33l0.08-4.29L70.67,29.6c2.29-2.05,3.78-4.02,4.49-5.91c0.7-1.88,1.05-3.91,1.05-6.06
		c0-2.44-0.58-4.67-1.75-6.67c-1.17-2-2.75-3.59-4.74-4.78C67.72,5,65.49,4.41,63.02,4.41c-2.52,0-4.78,0.61-6.79,1.83
		c-2,1.22-3.58,2.83-4.74,4.84c-1.16,2-1.74,4.19-1.74,6.55h-4.52c0-3.3,0.79-6.29,2.38-8.95s3.72-4.78,6.42-6.34
		C56.73,0.78,59.73,0,63.06,0c3.35,0,6.36,0.8,9.03,2.4c2.67,1.6,4.78,3.74,6.34,6.42c1.56,2.68,2.34,5.63,2.34,8.85
		c0,2.24-0.25,4.23-0.76,5.99c-0.51,1.75-1.31,3.39-2.4,4.91s-2.5,3.05-4.21,4.58L49.02,55.26l-0.94-2.34h32.68v4.41H44.77z"/>
</g>
</svg>
