<?xml version="1.0" encoding="utf-8"?>
<svg version="1.1" xmlns="http://www.w3.org/2000/svg" xmlns:xlink="http://www.w3.org/1999/xlink" x="0px"
	 y="0px" viewBox="0 0 265.9 34.8" style="enable-background:new 0 0 265.9 34.8;" xml:space="preserve">
<style type="text/css">
	.st0{fill:#C9C9C9;}
</style>
<g>
	<path class="st0" d="M9.4,27.1c-1.8,0-3.4-0.4-4.8-1.2c-1.4-0.8-2.5-1.9-3.4-3.4C0.4,21,0,19.4,0,17.5s0.4-3.6,1.3-5
		c0.8-1.4,2-2.6,3.4-3.4c1.4-0.8,3-1.2,4.8-1.2c1.8,0,3.3,0.4,4.8,1.2c1.4,0.8,2.5,1.9,3.4,3.4s1.2,3.1,1.2,5s-0.4,3.6-1.2,5
		c-0.8,1.4-2,2.6-3.4,3.4C12.7,26.7,11.1,27.1,9.4,27.1z M9.4,23c1.2,0,2.3-0.5,3.2-1.4c0.9-0.9,1.4-2.3,1.4-4.1s-0.5-3.2-1.4-4.1
		c-0.9-0.9-2-1.4-3.2-1.4c-1.3,0-2.3,0.5-3.2,1.4s-1.3,2.3-1.3,4.1s0.4,3.2,1.3,4.1S8.2,23,9.4,23z"/>
	<path class="st0" d="M22.6,26.6V8.3h4.2l0.4,3.1c0.6-1.1,1.4-1.9,2.5-2.6s2.3-1,3.8-1c2.3,0,4,0.7,5.3,2.1c1.3,1.4,1.9,3.5,1.9,6.3
		v10.4h-4.7v-9.9c0-1.6-0.3-2.8-1-3.6c-0.6-0.8-1.6-1.3-3-1.3c-1.3,0-2.4,0.5-3.3,1.4s-1.3,2.2-1.3,3.9v9.5H22.6z"/>
	<path class="st0" d="M53.7,27.1c-1.8,0-3.5-0.4-4.9-1.2c-1.4-0.8-2.6-1.9-3.4-3.3c-0.8-1.4-1.2-3.1-1.2-5c0-1.9,0.4-3.6,1.2-5.1
		c0.8-1.5,1.9-2.6,3.3-3.5c1.4-0.8,3.1-1.2,5-1.2c1.8,0,3.4,0.4,4.8,1.2c1.4,0.8,2.5,1.9,3.2,3.2c0.8,1.4,1.2,2.9,1.2,4.6
		c0,0.3,0,0.6,0,0.9c0,0.3,0,0.6-0.1,0.9H48.9c0.1,1.4,0.6,2.6,1.5,3.4c0.9,0.8,2,1.2,3.3,1.2c1,0,1.8-0.2,2.4-0.6
		c0.7-0.4,1.1-1,1.5-1.7h4.8C62,22,61.4,23.1,60.6,24c-0.8,1-1.8,1.7-3,2.2C56.5,26.8,55.2,27.1,53.7,27.1z M53.7,11.7
		c-1.2,0-2.2,0.3-3.1,1c-0.9,0.7-1.5,1.6-1.7,3h9.1c-0.1-1.2-0.5-2.2-1.3-2.9C55.9,12,54.9,11.7,53.7,11.7z"/>
	<path class="st0" d="M66.5,34.8V8.3h4.2l0.5,2.6c0.6-0.8,1.4-1.5,2.3-2.1c1-0.6,2.2-0.9,3.8-0.9c1.7,0,3.3,0.4,4.6,1.3
		c1.4,0.8,2.4,2,3.2,3.4s1.2,3.1,1.2,5c0,1.8-0.4,3.5-1.2,4.9c-0.8,1.4-1.9,2.6-3.2,3.4s-2.9,1.2-4.6,1.2c-1.4,0-2.6-0.3-3.6-0.8
		c-1-0.5-1.9-1.2-2.5-2.2v10.7H66.5z M76.4,22.9c1.5,0,2.8-0.5,3.7-1.5s1.5-2.3,1.5-3.9s-0.5-2.9-1.5-4S77.9,12,76.4,12
		c-1.5,0-2.8,0.5-3.8,1.5c-1,1-1.5,2.3-1.5,3.9s0.5,2.9,1.5,3.9C73.6,22.4,74.9,22.9,76.4,22.9z"/>
	<path class="st0" d="M92.8,5.4c-0.9,0-1.6-0.3-2.1-0.8c-0.6-0.5-0.8-1.2-0.8-2c0-0.8,0.3-1.4,0.8-1.9C91.3,0.3,92,0,92.8,0
		c0.9,0,1.6,0.3,2.1,0.8c0.6,0.5,0.8,1.2,0.8,1.9c0,0.8-0.3,1.4-0.8,2C94.4,5.2,93.7,5.4,92.8,5.4z M90.5,26.6V8.3h4.7v18.4H90.5z"
		/>
	<path class="st0" d="M98,26.6l6.7-9.2L98,8.3h5.1l4.7,6.5l4.6-6.5h5.1l-6.7,9.2l6.7,9.2h-5.1l-4.6-6.5l-4.7,6.5H98z"/>
	<path class="st0" d="M128.1,27.1c-1.8,0-3.5-0.4-4.9-1.2c-1.4-0.8-2.6-1.9-3.4-3.3c-0.8-1.4-1.2-3.1-1.2-5c0-1.9,0.4-3.6,1.2-5.1
		c0.8-1.5,1.9-2.6,3.3-3.5c1.4-0.8,3.1-1.2,5-1.2c1.8,0,3.4,0.4,4.8,1.2c1.4,0.8,2.5,1.9,3.2,3.2c0.8,1.4,1.2,2.9,1.2,4.6
		c0,0.3,0,0.6,0,0.9c0,0.3,0,0.6-0.1,0.9h-13.9c0.1,1.4,0.6,2.6,1.5,3.4c0.9,0.8,2,1.2,3.3,1.2c1,0,1.8-0.2,2.4-0.6
		c0.7-0.4,1.1-1,1.5-1.7h4.8c-0.3,1.2-0.9,2.2-1.7,3.2c-0.8,1-1.8,1.7-3,2.2C130.9,26.8,129.6,27.1,128.1,27.1z M128.2,11.7
		c-1.2,0-2.2,0.3-3.1,1c-0.9,0.7-1.5,1.6-1.7,3h9.1c-0.1-1.2-0.5-2.2-1.3-2.9C130.4,12,129.4,11.7,128.2,11.7z"/>
	<path class="st0" d="M141,26.6V0h4.7v26.6H141z"/>
	<path class="st0" d="M166.2,27.1c-1.6,0-3.1-0.3-4.3-0.8c-1.2-0.5-2.2-1.3-3-2.2s-1.2-2-1.3-3.3h4.8c0.1,0.7,0.5,1.3,1.2,1.8
		c0.7,0.5,1.5,0.8,2.5,0.8c1,0,1.8-0.2,2.3-0.6c0.5-0.4,0.7-0.9,0.7-1.4c0-0.8-0.3-1.3-1-1.6c-0.7-0.3-1.7-0.6-2.9-0.8
		c-0.8-0.2-1.6-0.4-2.4-0.6c-0.8-0.2-1.6-0.6-2.2-0.9c-0.7-0.4-1.2-0.9-1.6-1.5s-0.6-1.4-0.6-2.2c0-1.6,0.6-3,1.9-4.1
		c1.3-1.1,3.1-1.7,5.5-1.7c2.2,0,3.9,0.5,5.2,1.5c1.3,1,2.1,2.4,2.3,4.2h-4.5c-0.3-1.4-1.3-2-3.1-2c-0.9,0-1.6,0.2-2.1,0.5
		c-0.5,0.3-0.7,0.8-0.7,1.3c0,0.5,0.4,1,1.1,1.3c0.7,0.3,1.7,0.6,2.8,0.9c1.3,0.3,2.5,0.6,3.5,1s1.9,0.9,2.6,1.6c0.6,0.7,1,1.7,1,3
		c0,1.1-0.3,2.2-0.9,3.1c-0.6,0.9-1.5,1.6-2.7,2.1C169.1,26.8,167.8,27.1,166.2,27.1z"/>
	<path class="st0" d="M185.3,26.6c-1.9,0-3.5-0.5-4.6-1.4c-1.2-0.9-1.7-2.6-1.7-5v-8h-3.1v-4h3.1l0.6-4.9h4.2v4.9h5v4h-5v8
		c0,0.9,0.2,1.5,0.6,1.8s1,0.5,2,0.5h2.3v4H185.3z"/>
	<path class="st0" d="M199.2,27.1c-2.3,0-4.1-0.7-5.3-2.1c-1.2-1.4-1.9-3.5-1.9-6.3V8.3h4.7v9.9c0,1.6,0.3,2.8,1,3.6s1.7,1.3,3,1.3
		c1.3,0,2.4-0.5,3.2-1.4s1.3-2.2,1.3-3.9V8.3h4.7v18.4h-4.2l-0.4-3.1c-0.6,1.1-1.4,1.9-2.5,2.6C201.9,26.8,200.6,27.1,199.2,27.1z"
		/>
	<path class="st0" d="M222.8,27.1c-1.7,0-3.3-0.4-4.6-1.3c-1.4-0.8-2.4-2-3.2-3.4c-0.8-1.5-1.2-3.1-1.2-5c0-1.9,0.4-3.5,1.2-4.9
		c0.8-1.4,1.9-2.6,3.2-3.4c1.4-0.8,2.9-1.2,4.6-1.2c1.4,0,2.6,0.3,3.6,0.8c1,0.5,1.9,1.2,2.5,2.2V0h4.7v26.6h-4.2L229,24
		c-0.6,0.8-1.4,1.5-2.3,2.1C225.7,26.8,224.4,27.1,222.8,27.1z M223.8,22.9c1.5,0,2.8-0.5,3.8-1.5c1-1,1.5-2.3,1.5-3.9
		s-0.5-2.9-1.5-3.9c-1-1-2.2-1.5-3.8-1.5c-1.5,0-2.8,0.5-3.7,1.5s-1.5,2.3-1.5,3.9s0.5,2.9,1.5,4S222.3,22.9,223.8,22.9z"/>
	<path class="st0" d="M240.7,5.4c-0.9,0-1.6-0.3-2.1-0.8c-0.6-0.5-0.8-1.2-0.8-2c0-0.8,0.3-1.4,0.8-1.9c0.6-0.5,1.3-0.8,2.1-0.8
		c0.9,0,1.6,0.3,2.1,0.8c0.6,0.5,0.8,1.2,0.8,1.9c0,0.8-0.3,1.4-0.8,2C242.3,5.2,241.6,5.4,240.7,5.4z M238.3,26.6V8.3h4.7v18.4
		H238.3z"/>
	<path class="st0" d="M256.5,27.1c-1.8,0-3.4-0.4-4.8-1.2c-1.4-0.8-2.5-1.9-3.4-3.4c-0.8-1.4-1.2-3.1-1.2-5s0.4-3.6,1.3-5
		c0.8-1.4,2-2.6,3.4-3.4c1.4-0.8,3-1.2,4.8-1.2c1.8,0,3.3,0.4,4.8,1.2c1.4,0.8,2.5,1.9,3.4,3.4s1.2,3.1,1.2,5s-0.4,3.6-1.2,5
		c-0.8,1.4-2,2.6-3.4,3.4C259.8,26.7,258.2,27.1,256.5,27.1z M256.5,23c1.2,0,2.3-0.5,3.2-1.4s1.4-2.3,1.4-4.1s-0.5-3.2-1.4-4.1
		s-2-1.4-3.2-1.4c-1.3,0-2.3,0.5-3.2,1.4c-0.9,0.9-1.4,2.3-1.4,4.1s0.4,3.2,1.4,4.1C254.2,22.5,255.2,23,256.5,23z"/>
</g>
</svg>
