<?xml version="1.0" encoding="utf-8"?>
<svg version="1.1" xmlns="http://www.w3.org/2000/svg" xmlns:xlink="http://www.w3.org/1999/xlink" x="0px"
	 y="0px" viewBox="0 0 162 162" style="enable-background:new 0 0 162 162;" xml:space="preserve">
<style type="text/css">
	.st0{fill:#FFFFFF;}
	.st1{fill:none;stroke:#FFFFFF;stroke-width:2;stroke-miterlimit:10;}
</style>
<g>
	<g>
		<g>
			<path class="st0" d="M32.6,75.7V49.1l-5.5,1.3v-4.7l8.1-3.6H39v33.6H32.6z"/>
			<path class="st0" d="M45.3,86.2V51.9h5.5l0.7,3.4c0.8-1.1,1.8-2,3-2.8c1.3-0.8,2.9-1.2,4.9-1.2c2.2,0,4.2,0.5,6,1.6
				c1.8,1.1,3.2,2.6,4.2,4.5c1,1.9,1.5,4,1.5,6.4c0,2.4-0.5,4.5-1.5,6.4c-1,1.9-2.4,3.3-4.2,4.4c-1.8,1.1-3.8,1.6-6,1.6
				c-1.8,0-3.4-0.3-4.7-1c-1.3-0.7-2.4-1.6-3.3-2.8v13.8H45.3z M58.2,70.9c2,0,3.6-0.7,4.8-2c1.3-1.3,1.9-3,1.9-5.1
				c0-2.1-0.6-3.8-1.9-5.1c-1.3-1.3-2.9-2-4.8-2c-2,0-3.6,0.7-4.9,2c-1.3,1.3-1.9,3-1.9,5.1c0,2.1,0.6,3.8,1.9,5.1
				C54.6,70.2,56.2,70.9,58.2,70.9z"/>
			<path class="st0" d="M73.1,75.7l8.6-11.9l-8.6-11.9h6.6l6,8.4l6-8.4h6.6l-8.7,11.9l8.7,11.9h-6.6l-6-8.4l-6,8.4H73.1z"/>
		</g>
		<g>
			<path class="st0" d="M35.4,118.1c-1.6,0-3-0.3-4.2-0.8c-1.2-0.5-2.2-1.2-2.9-2.1c-0.7-0.9-1.2-2-1.3-3.2h4.6
				c0.1,0.7,0.5,1.3,1.2,1.8c0.6,0.5,1.5,0.7,2.5,0.7s1.7-0.2,2.2-0.6c0.5-0.4,0.7-0.9,0.7-1.4c0-0.8-0.3-1.3-1-1.6
				s-1.6-0.5-2.8-0.8c-0.8-0.2-1.5-0.4-2.3-0.6c-0.8-0.2-1.5-0.5-2.2-0.9c-0.7-0.4-1.2-0.9-1.6-1.4c-0.4-0.6-0.6-1.3-0.6-2.2
				c0-1.6,0.6-2.9,1.9-4s3-1.6,5.3-1.6c2.1,0,3.8,0.5,5.1,1.5c1.3,1,2,2.3,2.2,4.1h-4.4c-0.3-1.3-1.3-2-3-2c-0.9,0-1.5,0.2-2,0.5
				c-0.5,0.3-0.7,0.8-0.7,1.3c0,0.5,0.3,0.9,1,1.3c0.7,0.3,1.6,0.6,2.8,0.9c1.2,0.3,2.4,0.6,3.4,1c1,0.3,1.9,0.9,2.5,1.5
				s0.9,1.7,0.9,2.9c0,1.1-0.3,2.1-0.9,3c-0.6,0.9-1.5,1.6-2.6,2.1C38.3,117.8,36.9,118.1,35.4,118.1z"/>
			<path class="st0" d="M54.3,117.7c-1.9,0-3.4-0.5-4.5-1.4c-1.1-0.9-1.7-2.5-1.7-4.9v-7.8H45v-3.9h3.1l0.5-4.8h4.1v4.8h4.8v3.9
				h-4.8v7.8c0,0.9,0.2,1.5,0.6,1.8c0.4,0.3,1,0.5,1.9,0.5h2.2v3.9H54.3z"/>
			<path class="st0" d="M68.2,118.1c-2.2,0-4-0.7-5.2-2.1c-1.2-1.4-1.8-3.4-1.8-6.1V99.8h4.6v9.6c0,1.5,0.3,2.7,0.9,3.5
				c0.6,0.8,1.6,1.2,3,1.2c1.3,0,2.3-0.5,3.2-1.4c0.8-0.9,1.2-2.2,1.2-3.8v-9.2h4.6v17.9h-4.1l-0.4-3c-0.6,1.1-1.3,1.9-2.4,2.5
				C70.8,117.8,69.6,118.1,68.2,118.1z"/>
			<path class="st0" d="M91.6,118.1c-1.7,0-3.2-0.4-4.5-1.2c-1.3-0.8-2.4-1.9-3.1-3.3c-0.8-1.4-1.2-3-1.2-4.8c0-1.8,0.4-3.4,1.2-4.8
				s1.8-2.5,3.1-3.3c1.3-0.8,2.8-1.2,4.5-1.2c1.3,0,2.5,0.3,3.5,0.8c1,0.5,1.8,1.2,2.4,2.1V91.7h4.6v25.9h-4.1l-0.5-2.6
				c-0.6,0.8-1.3,1.5-2.3,2.1S93.1,118.1,91.6,118.1z M92.6,114.1c1.5,0,2.7-0.5,3.7-1.5c0.9-1,1.4-2.3,1.4-3.8
				c0-1.6-0.5-2.8-1.4-3.8c-0.9-1-2.2-1.5-3.7-1.5c-1.5,0-2.7,0.5-3.6,1.5c-1,1-1.4,2.3-1.4,3.8s0.5,2.8,1.4,3.9
				C89.9,113.6,91.1,114.1,92.6,114.1z"/>
			<path class="st0" d="M109.3,97c-0.8,0-1.5-0.3-2.1-0.8c-0.5-0.5-0.8-1.1-0.8-1.9c0-0.8,0.3-1.4,0.8-1.9c0.5-0.5,1.2-0.7,2.1-0.7
				c0.8,0,1.5,0.2,2.1,0.7c0.5,0.5,0.8,1.1,0.8,1.9c0,0.8-0.3,1.4-0.8,1.9C110.9,96.8,110.2,97,109.3,97z M107,117.7V99.8h4.6v17.9
				H107z"/>
			<path class="st0" d="M125,118.1c-1.7,0-3.3-0.4-4.7-1.2c-1.4-0.8-2.5-1.9-3.3-3.3c-0.8-1.4-1.2-3-1.2-4.9c0-1.8,0.4-3.5,1.2-4.9
				c0.8-1.4,1.9-2.5,3.3-3.3s2.9-1.2,4.7-1.2c1.7,0,3.2,0.4,4.6,1.2c1.4,0.8,2.5,1.9,3.3,3.3c0.8,1.4,1.2,3,1.2,4.9
				c0,1.8-0.4,3.5-1.2,4.9c-0.8,1.4-1.9,2.5-3.3,3.3S126.7,118.1,125,118.1z M125,114.1c1.2,0,2.2-0.5,3.1-1.4
				c0.9-0.9,1.3-2.2,1.3-4c0-1.8-0.4-3.1-1.3-4c-0.9-0.9-1.9-1.4-3.1-1.4c-1.2,0-2.3,0.5-3.1,1.4s-1.3,2.2-1.3,4
				c0,1.8,0.4,3.1,1.3,4S123.8,114.1,125,114.1z"/>
		</g>
	</g>
	<g>
		<g>
			<path class="st0" d="M156,6v150H6V6H156 M162,0H0v162h162V0L162,0z"/>
		</g>
		<line class="st1" x1="157.5" y1="4.5" x2="135.5" y2="26.5"/>
	</g>
</g>
</svg>
