<?xml version="1.0" encoding="utf-8"?>
<!-- Generator: Adobe Illustrator 25.1.0, SVG Export Plug-In . SVG Version: 6.00 Build 0)  -->
<svg version="1.1" id="레이어_1" xmlns="http://www.w3.org/2000/svg" xmlns:xlink="http://www.w3.org/1999/xlink" x="0px"
	 y="0px" viewBox="0 0 113.63 82.5" style="enable-background:new 0 0 113.63 82.5;" xml:space="preserve">
<style type="text/css">
	.st0{fill:#EAEAEA;}
</style>
<g>
	<path class="st0" d="M25.85,82.5c-4.88,0-9.27-1.14-13.17-3.41c-3.91-2.27-7-5.36-9.27-9.27C1.14,65.92,0,61.53,0,56.65v-30.8
		c0-4.88,1.14-9.27,3.41-13.17c2.27-3.91,5.36-6.99,9.27-9.27C16.58,1.14,20.97,0,25.85,0c4.88,0,9.27,1.14,13.17,3.41
		c3.91,2.27,6.99,5.36,9.27,9.27c2.27,3.9,3.41,8.3,3.41,13.17v30.8c0,4.88-1.14,9.27-3.41,13.17c-2.27,3.91-5.36,6.99-9.27,9.27
		C35.12,81.36,30.73,82.5,25.85,82.5z M25.85,74.69c3.26,0,6.23-0.8,8.91-2.39c2.68-1.59,4.8-3.73,6.38-6.41
		c1.58-2.68,2.37-5.63,2.37-8.85V25.47c0-3.26-0.79-6.23-2.37-8.91c-1.58-2.68-3.7-4.81-6.38-6.41c-2.68-1.59-5.65-2.39-8.91-2.39
		s-6.23,0.8-8.91,2.39c-2.68,1.6-4.8,3.73-6.38,6.41c-1.58,2.68-2.37,5.65-2.37,8.91v31.57c0,3.23,0.79,6.18,2.37,8.85
		c1.58,2.68,3.7,4.81,6.38,6.41C19.62,73.89,22.59,74.69,25.85,74.69z"/>
	<path class="st0" d="M88.38,82.44c-3.92,0-7.53-0.7-10.83-2.09c-3.3-1.39-6.14-3.38-8.53-5.97c-2.38-2.58-4.12-5.67-5.22-9.27
		l7.7-2.31c1.32,3.92,3.49,6.89,6.52,8.91c3.03,2.02,6.44,2.99,10.26,2.92c3.52-0.07,6.55-0.86,9.1-2.37
		c2.55-1.5,4.5-3.59,5.86-6.27c1.36-2.68,2.04-5.78,2.04-9.29c0-5.39-1.57-9.73-4.7-13.01c-3.14-3.28-7.27-4.92-12.4-4.92
		c-1.43,0-2.93,0.19-4.51,0.58c-1.58,0.39-3.04,0.93-4.4,1.62l-4.07-6.44l30.8-28.44l1.32,3.3H66.93V1.65h45.76v7.87L85.85,35.15
		l-0.11-3.19c5.5-0.7,10.34-0.07,14.52,1.87c4.18,1.94,7.45,4.9,9.82,8.88c2.37,3.98,3.55,8.64,3.55,14c0,5.06-1.09,9.52-3.27,13.39
		s-5.18,6.89-8.99,9.07C97.55,81.35,93.22,82.44,88.38,82.44z"/>
</g>
</svg>
