<?xml version="1.0" encoding="utf-8"?>
<!-- Generator: Adobe Illustrator 25.1.0, SVG Export Plug-In . SVG Version: 6.00 Build 0)  -->
<svg version="1.1" id="레이어_1" xmlns="http://www.w3.org/2000/svg" xmlns:xlink="http://www.w3.org/1999/xlink" x="0px"
	 y="0px" viewBox="0 0 118.74 82.5" style="enable-background:new 0 0 118.74 82.5;" xml:space="preserve">
<style type="text/css">
	.st0{fill:#EAEAEA;}
</style>
<g>
	<path class="st0" d="M25.85,82.5c-4.88,0-9.27-1.14-13.17-3.41c-3.91-2.27-7-5.36-9.27-9.27C1.14,65.92,0,61.53,0,56.65v-30.8
		c0-4.88,1.14-9.27,3.41-13.17c2.27-3.91,5.36-6.99,9.27-9.27C16.58,1.14,20.97,0,25.85,0c4.88,0,9.27,1.14,13.17,3.41
		c3.91,2.27,6.99,5.36,9.27,9.27c2.27,3.9,3.41,8.3,3.41,13.17v30.8c0,4.88-1.14,9.27-3.41,13.17c-2.27,3.91-5.36,6.99-9.27,9.27
		C35.12,81.36,30.73,82.5,25.85,82.5z M25.85,74.69c3.26,0,6.23-0.8,8.91-2.39c2.68-1.59,4.8-3.73,6.38-6.41
		c1.58-2.68,2.37-5.63,2.37-8.85V25.47c0-3.26-0.79-6.23-2.37-8.91c-1.58-2.68-3.7-4.81-6.38-6.41c-2.68-1.59-5.65-2.39-8.91-2.39
		s-6.23,0.8-8.91,2.39c-2.68,1.6-4.8,3.73-6.38,6.41c-1.58,2.68-2.37,5.65-2.37,8.91v31.57c0,3.23,0.79,6.18,2.37,8.85
		c1.58,2.68,3.7,4.81,6.38,6.41C19.62,73.89,22.59,74.69,25.85,74.69z"/>
	<path class="st0" d="M101.97,80.85V65.5H64.9v-7.7L91.41,1.65h9.08L73.97,57.8h27.99v-23.1h8.14v23.1h8.63v7.7h-8.63v15.34H101.97z
		"/>
</g>
</svg>
