<?xml version="1.0" encoding="utf-8"?>
<!-- Generator: Adobe Illustrator 25.1.0, SVG Export Plug-In . SVG Version: 6.00 Build 0)  -->
<svg version="1.1" id="레이어_1" xmlns="http://www.w3.org/2000/svg" xmlns:xlink="http://www.w3.org/1999/xlink" x="0px"
	 y="0px" viewBox="0 0 116.6 82.5" style="enable-background:new 0 0 116.6 82.5;" xml:space="preserve">
<style type="text/css">
	.st0{fill:#EAEAEA;}
</style>
<g>
	<path class="st0" d="M25.85,82.5c-4.88,0-9.27-1.14-13.17-3.41c-3.91-2.27-7-5.36-9.27-9.27C1.14,65.92,0,61.53,0,56.65v-30.8
		c0-4.88,1.14-9.27,3.41-13.17c2.27-3.91,5.36-6.99,9.27-9.27C16.58,1.14,20.97,0,25.85,0c4.88,0,9.27,1.14,13.17,3.41
		c3.91,2.27,6.99,5.36,9.27,9.27c2.27,3.9,3.41,8.3,3.41,13.17v30.8c0,4.88-1.14,9.27-3.41,13.17c-2.27,3.9-5.36,6.99-9.27,9.27
		C35.12,81.36,30.73,82.5,25.85,82.5z M25.85,74.69c3.26,0,6.23-0.8,8.91-2.39c2.68-1.59,4.8-3.73,6.38-6.41
		c1.58-2.68,2.37-5.63,2.37-8.86V25.47c0-3.26-0.79-6.23-2.37-8.91c-1.58-2.68-3.7-4.81-6.38-6.41c-2.68-1.59-5.65-2.39-8.91-2.39
		s-6.23,0.8-8.91,2.39c-2.68,1.6-4.8,3.73-6.38,6.41c-1.58,2.68-2.37,5.65-2.37,8.91v31.57c0,3.23,0.79,6.18,2.37,8.86
		c1.58,2.68,3.7,4.81,6.38,6.41S22.59,74.69,25.85,74.69z"/>
	<path class="st0" d="M64.9,80.79l0.05-7.37l35.81-32.34c3.08-2.79,5.12-5.44,6.13-7.95c1.01-2.51,1.51-5.14,1.51-7.89
		c0-3.26-0.77-6.21-2.31-8.85s-3.61-4.74-6.21-6.3c-2.6-1.56-5.52-2.34-8.75-2.34c-3.37,0-6.38,0.81-9.02,2.42
		c-2.64,1.61-4.72,3.74-6.24,6.38c-1.52,2.64-2.26,5.52-2.23,8.63h-8.25c0-4.8,1.14-9.11,3.41-12.92c2.27-3.81,5.35-6.81,9.24-8.99
		C81.93,1.09,86.33,0,91.24,0c4.8,0,9.12,1.13,12.95,3.38c3.83,2.25,6.86,5.3,9.07,9.13c2.22,3.83,3.33,8.09,3.33,12.79
		c0,3.3-0.39,6.21-1.18,8.72c-0.79,2.51-2.02,4.84-3.69,6.98c-1.67,2.15-3.79,4.35-6.35,6.63L73.59,76.34l-1.27-3.3h44.27v7.75H64.9
		z"/>
</g>
</svg>
